<mxfile host="app.diagrams.net" agent="Mozilla/5.0 (Windows NT 10.0; Win64; x64) AppleWebKit/537.36 (KHTML, like Gecko) Chrome/135.0.0.0 Safari/537.36" version="26.2.14">
  <diagram name="Trang-1" id="ae18-4LUJwS0NWcRIFIJ">
    <mxGraphModel grid="1" page="1" gridSize="10" guides="1" tooltips="1" connect="1" arrows="1" fold="1" pageScale="1" pageWidth="827" pageHeight="1169" math="0" shadow="0">
      <root>
        <mxCell id="0" />
        <mxCell id="1" parent="0" />
        <mxCell id="j1-9L7we4Rr_3LaPuljx-1" style="edgeStyle=orthogonalEdgeStyle;rounded=0;orthogonalLoop=1;jettySize=auto;html=1;exitX=0.5;exitY=1;exitDx=0;exitDy=0;entryX=0.5;entryY=0;entryDx=0;entryDy=0;" edge="1" parent="1" source="i1gnTmM2DgrWp9bDKEA0-1" target="i1gnTmM2DgrWp9bDKEA0-5">
          <mxGeometry relative="1" as="geometry" />
        </mxCell>
        <mxCell id="i1gnTmM2DgrWp9bDKEA0-1" value="&lt;div&gt;CodeGenerator&lt;/div&gt;" style="rounded=0;whiteSpace=wrap;html=1;spacing=2;fontSize=16;fontFamily=Times New Roman;" vertex="1" parent="1">
          <mxGeometry x="365" y="-170" width="187.5" height="60" as="geometry" />
        </mxCell>
        <mxCell id="i1gnTmM2DgrWp9bDKEA0-5" value="&lt;div&gt;&lt;div&gt;&lt;div&gt;&lt;div&gt;&lt;br&gt;&lt;/div&gt;&lt;/div&gt;&lt;/div&gt;&lt;/div&gt;" style="rounded=0;whiteSpace=wrap;html=1;align=left;verticalAlign=top;fontSize=16;fontFamily=Times New Roman;" vertex="1" parent="1">
          <mxGeometry x="272.5" y="-80" width="372.5" height="30" as="geometry" />
        </mxCell>
        <mxCell id="U03tu_x945s0NoPWiGYZ-3" style="edgeStyle=orthogonalEdgeStyle;rounded=0;orthogonalLoop=1;jettySize=auto;html=1;exitX=0.25;exitY=1;exitDx=0;exitDy=0;entryX=0.5;entryY=0;entryDx=0;entryDy=0;" edge="1" parent="1" source="G2cZP-SPqrOAaB2idnXO-2" target="U03tu_x945s0NoPWiGYZ-1">
          <mxGeometry relative="1" as="geometry" />
        </mxCell>
        <mxCell id="U03tu_x945s0NoPWiGYZ-5" style="edgeStyle=orthogonalEdgeStyle;rounded=0;orthogonalLoop=1;jettySize=auto;html=1;exitX=0.75;exitY=1;exitDx=0;exitDy=0;entryX=0.5;entryY=0;entryDx=0;entryDy=0;" edge="1" parent="1" source="G2cZP-SPqrOAaB2idnXO-2" target="U03tu_x945s0NoPWiGYZ-4">
          <mxGeometry relative="1" as="geometry" />
        </mxCell>
        <mxCell id="G2cZP-SPqrOAaB2idnXO-2" value="&lt;div&gt;+ void generateCode(const vector&amp;lt;IRNode&amp;gt;&amp;amp; irNodes)&lt;/div&gt;&lt;div&gt;- void printArgs(const vector&amp;lt;string&amp;gt;&amp;amp; args)&lt;/div&gt;&lt;div&gt;- void generateForLoop(const IRNode&amp;amp; node)&lt;/div&gt;&lt;div&gt;&lt;br&gt;&lt;/div&gt;" style="rounded=0;whiteSpace=wrap;html=1;align=left;verticalAlign=top;fontSize=16;fontFamily=Times New Roman;" vertex="1" parent="1">
          <mxGeometry x="272.5" y="-50" width="372.5" height="70" as="geometry" />
        </mxCell>
        <mxCell id="U03tu_x945s0NoPWiGYZ-1" value="&lt;div&gt;&amp;nbsp; &amp;nbsp; &amp;nbsp;&lt;span style=&quot;white-space: pre;&quot;&gt;&#x9;&lt;/span&gt;&lt;span style=&quot;white-space: pre;&quot;&gt;&#x9;&lt;/span&gt;&amp;nbsp; &amp;nbsp; IRType&lt;/div&gt;&lt;div&gt;&lt;div&gt;+ VAR_DECLARATION&lt;/div&gt;&lt;div&gt;+ ASSIGNMENT&lt;/div&gt;&lt;div&gt;+ BINARY_OP&lt;/div&gt;&lt;div&gt;+ UNARY_OP&lt;/div&gt;&lt;div&gt;+ IF&lt;/div&gt;&lt;div&gt;+ WHILE&lt;/div&gt;&lt;div&gt;+ FUNC_CALL&lt;/div&gt;&lt;div&gt;+ FOR_LOOP&lt;/div&gt;&lt;/div&gt;" style="rounded=0;whiteSpace=wrap;html=1;align=left;verticalAlign=top;fontSize=16;fontFamily=Times New Roman;" vertex="1" parent="1">
          <mxGeometry x="155" y="100" width="210" height="190" as="geometry" />
        </mxCell>
        <mxCell id="U03tu_x945s0NoPWiGYZ-4" value="&lt;div&gt;&amp;nbsp; &amp;nbsp; &amp;nbsp;&lt;span style=&quot;white-space: pre;&quot;&gt;&#x9;&lt;/span&gt;&lt;span style=&quot;white-space: pre;&quot;&gt;&#x9;&lt;/span&gt;&amp;nbsp; &amp;nbsp; IRNode&lt;/div&gt;&lt;div&gt;&lt;div&gt;+ IRType type&lt;/div&gt;&lt;div&gt;+ string op&lt;/div&gt;&lt;div&gt;+ string lhs&lt;/div&gt;&lt;div&gt;+ string rhs&lt;/div&gt;&lt;div&gt;+ string condition&lt;/div&gt;&lt;div&gt;+ string func_name&lt;/div&gt;&lt;div&gt;+ vector&amp;lt;string&amp;gt; args&lt;/div&gt;&lt;div&gt;+ string init&lt;/div&gt;&lt;div&gt;+ string loop_cond&lt;/div&gt;&lt;div&gt;+ string iteration&lt;/div&gt;&lt;div&gt;+ vector&amp;lt;IRNode&amp;gt; body&lt;/div&gt;&lt;/div&gt;" style="rounded=0;whiteSpace=wrap;html=1;align=left;verticalAlign=top;fontSize=16;fontFamily=Times New Roman;" vertex="1" parent="1">
          <mxGeometry x="552.5" y="100" width="210" height="250" as="geometry" />
        </mxCell>
      </root>
    </mxGraphModel>
  </diagram>
</mxfile>
